<svg xmlns="http://www.w3.org/2000/svg" xmlns:xlink="http://www.w3.org/1999/xlink" viewBox="0 0 193.67 189.03"><defs><style>.cls-1{fill:url(#linear-gradient);}</style><linearGradient id="linear-gradient" x1="2.75" y1="94.52" x2="190.92" y2="94.52" gradientTransform="translate(17.39 -15.02) rotate(9.74)" gradientUnits="userSpaceOnUse"><stop offset="0" stop-color="#72a9e2"/><stop offset="1" stop-color="#ea71f4"/></linearGradient></defs><g id="Layer_2" data-name="Layer 2"><g id="Layer_1-2" data-name="Layer 1"><path class="cls-1" d="M143.17,177.15,84,188.37A37.62,37.62,0,0,1,48.44,176L9.12,130.29a37.6,37.6,0,0,1-7-37L22,36.44A37.66,37.66,0,0,1,50.5,11.88L109.71.66a37.64,37.64,0,0,1,35.52,12.41l39.33,45.67a37.65,37.65,0,0,1,7,37L171.68,152.6A37.6,37.6,0,0,1,143.17,177.15Z"/></g></g></svg>