<svg xmlns="http://www.w3.org/2000/svg" xmlns:xlink="http://www.w3.org/1999/xlink" viewBox="0 0 999.66 437"><defs><style>.cls-1{fill:url(#linear-gradient);}.cls-2{fill:url(#linear-gradient-2);}.cls-3{fill:url(#linear-gradient-3);}.cls-4{fill:url(#linear-gradient-4);}.cls-5{fill:url(#linear-gradient-5);}</style><linearGradient id="linear-gradient" y1="218.5" x2="999.09" y2="218.5" gradientUnits="userSpaceOnUse"><stop offset="0" stop-color="#ea71f4"/><stop offset="0.57" stop-color="#a392e9"/><stop offset="1" stop-color="#72a9e2"/></linearGradient><linearGradient id="linear-gradient-2" x1="176.11" y1="179.5" x2="999.09" y2="179.5" xlink:href="#linear-gradient"/><linearGradient id="linear-gradient-3" x1="368.67" y1="137.5" x2="999.09" y2="137.5" xlink:href="#linear-gradient"/><linearGradient id="linear-gradient-4" x1="542.9" y1="99.5" x2="999.09" y2="99.5" xlink:href="#linear-gradient"/><linearGradient id="linear-gradient-5" x1="801.55" y1="112.15" x2="999.66" y2="112.15" xlink:href="#linear-gradient"/></defs><g id="Layer_2" data-name="Layer 2"><g id="Layer_6" data-name="Layer 6"><path class="cls-1" d="M338.09,359C-14.95,327.48.09,0,.09,0h999V437s-40.29-160.14-314-110C554.09,351,450.09,369,338.09,359Z"/><path class="cls-2" d="M414.18,303.14C136.15,216.61,178.4,0,178.4,0H999.09V359s-29.36-89.35-258-90.37C557.12,267.81,612.16,364.75,414.18,303.14Z"/><path class="cls-3" d="M551,232.21C338.06,165.93,370.43,0,370.43,0H999.09V275S976.6,206.56,801.5,205.78C660.53,205.15,702.7,279.41,551,232.21Z"/><path class="cls-4" d="M674.86,168C520.75,120.07,544.17,0,544.17,0H999.09V199s-16.27-49.53-143-50.09C754.1,148.45,784.61,202.19,674.86,168Z"/><path class="cls-5" d="M999.66,14.4A28.82,28.82,0,0,0,974.71,0H878.47a28.79,28.79,0,0,0-24.94,14.4L805.41,97.75a28.77,28.77,0,0,0,0,28.8l48.12,83.35a28.79,28.79,0,0,0,24.94,14.4h96.24a28.82,28.82,0,0,0,24.95-14.4Z"/></g></g></svg>